<svg xmlns="http://www.w3.org/2000/svg" width="760" height="440" font-family="sans-serif">
<rect width="760" height="440" fill="white"/>
<text x="380" y="24" text-anchor="middle" font-size="16">Spontaneous anapole growth from anapole-free initial conditions (96³, 2% noise)</text>
<line x1="78" y1="364.88090589944875" x2="740" y2="364.88090589944875" stroke="#ddd"/>
<text x="70" y="368.88090589944875" text-anchor="end" font-size="12">1e-5</text>
<line x1="78" y1="177.75509052336142" x2="740" y2="177.75509052336142" stroke="#ddd"/>
<text x="70" y="181.75509052336142" text-anchor="end" font-size="12">1e-4</text>
<line x1="78.0" y1="44" x2="78.0" y2="388" stroke="#eee"/>
<text x="78.0" y="406" text-anchor="middle" font-size="12">0.3</text>
<line x1="210.4" y1="44" x2="210.4" y2="388" stroke="#eee"/>
<text x="210.4" y="406" text-anchor="middle" font-size="12">3.8</text>
<line x1="342.8" y1="44" x2="342.8" y2="388" stroke="#eee"/>
<text x="342.8" y="406" text-anchor="middle" font-size="12">7.4</text>
<line x1="475.2" y1="44" x2="475.2" y2="388" stroke="#eee"/>
<text x="475.2" y="406" text-anchor="middle" font-size="12">10.9</text>
<line x1="607.6" y1="44" x2="607.6" y2="388" stroke="#eee"/>
<text x="607.6" y="406" text-anchor="middle" font-size="12">14.5</text>
<line x1="740.0" y1="44" x2="740.0" y2="388" stroke="#eee"/>
<text x="740.0" y="406" text-anchor="middle" font-size="12">18.0</text>
<rect x="78" y="44" width="662" height="344" fill="none" stroke="#888"/>
<text x="409" y="428" text-anchor="middle" font-size="13">t</text>
<text x="20" y="216" text-anchor="middle" font-size="13" transform="rotate(-90 20 216)">|T|  (anapole moment)</text>
<polyline points="78.0,258.1 87.4,197.9 96.7,189.6 106.2,202.7 115.4,220.7 124.8,190.5 134.1,159.9 143.5,140.5 152.7,128.3 162.2,120.0 171.5,114.5 180.5,110.7 190.0,107.9 199.2,106.7 208.5,106.6 217.7,106.3 227.4,105.2 236.6,104.1 245.8,103.0 255.1,101.8 264.5,100.0 273.6,97.6 283.0,94.8 292.4,91.8 301.9,88.7 311.0,85.7 320.5,82.9 329.6,80.5 339.1,78.2 348.3,76.1 357.5,74.4 367.2,73.1 376.3,72.3 385.5,71.8 394.9,71.5 404.0,71.2 413.4,70.8 422.7,70.1 432.0,69.3 441.7,68.1 451.0,66.9 460.3,65.8 469.3,64.8 478.9,63.9 488.1,63.3 497.5,62.9 506.6,62.6 516.3,62.4 525.6,62.4 534.6,62.6 544.3,62.9 553.6,63.4 562.5,63.9 572.2,64.6 581.3,65.2 590.6,65.9 599.9,66.5 609.2,67.0 618.5,67.5 627.8,68.0 637.2,68.4 646.7,68.9 655.6,69.3 665.3,69.7 674.5,70.1 683.8,70.4 693.2,70.8 702.6,71.1 712.1,71.5 720.9,71.9 730.4,72.3 740.0,72.8" fill="none" stroke="#1f77b4" stroke-width="2"/>
<line x1="90" y1="60" x2="118" y2="60" stroke="#1f77b4" stroke-width="3"/>
<text x="124" y="64" font-size="12">limnickels (ring collision)</text>
<polyline points="78.0,369.6 87.5,333.2 96.6,274.1 106.2,243.2 115.3,231.0 124.7,225.3 133.9,220.0 143.4,213.5 152.8,208.3 162.1,205.4 171.1,203.2 180.9,200.6 190.1,198.8 199.4,198.8 208.5,200.5 217.8,203.3 227.4,206.4 236.7,209.4 246.1,211.8 255.4,212.1 264.4,208.5 274.1,200.5 283.2,191.1 292.3,182.4 302.1,175.2 311.3,170.8 320.7,167.8 330.0,165.6 338.8,163.7 348.3,161.8 357.8,160.4 366.8,159.9 376.6,160.1 385.9,160.9 395.2,162.0 404.7,163.2 413.5,164.4 423.1,165.7 432.1,166.8 441.7,168.0 450.7,169.2 460.3,170.6 469.4,172.0 479.1,173.3 488.2,174.3 497.2,175.0 507.0,175.7 516.0,176.4 525.7,177.2 534.8,178.1 543.9,179.0 553.7,179.8 562.9,180.4 572.1,180.9 581.4,181.2 590.7,181.3 600.2,181.2 609.6,181.0 618.4,180.8 627.9,180.7 637.4,180.8 646.2,180.9 655.8,181.1 665.4,181.2 674.2,181.4 683.8,181.5 693.4,181.6 702.3,181.6 711.8,181.7 721.4,181.7 730.3,181.7 739.9,181.6" fill="none" stroke="#d62728" stroke-width="2"/>
<line x1="90" y1="76" x2="118" y2="76" stroke="#d62728" stroke-width="3"/>
<text x="124" y="80" font-size="12">counterhel (merging)</text>
</svg>
