<svg xmlns="http://www.w3.org/2000/svg" width="720" height="460" font-family="sans-serif">
<rect width="720" height="460" fill="#fcfcfb"/>
<text x="360" y="24" text-anchor="middle" font-size="16" fill="#0b0b0b">What an Aharonov–Bohm probe sees vs a magnetometer (k1r anapole coil)</text>
<text x="360" y="42" text-anchor="middle" font-size="12" fill="#898781">linked flux Φ stays ≈ constant as the loop grows; B on the same loop decays like the far field</text>
<line x1="74" y1="366.7796965059587" x2="696" y2="366.7796965059587" stroke="#e1e0d9"/>
<text x="66" y="370.7796965059587" text-anchor="end" font-size="11" fill="#898781">1e-7</text>
<line x1="74" y1="324.64655771146386" x2="696" y2="324.64655771146386" stroke="#e1e0d9"/>
<text x="66" y="328.64655771146386" text-anchor="end" font-size="11" fill="#898781">1e-6</text>
<line x1="74" y1="282.51341891696904" x2="696" y2="282.51341891696904" stroke="#e1e0d9"/>
<text x="66" y="286.51341891696904" text-anchor="end" font-size="11" fill="#898781">1e-5</text>
<line x1="74" y1="240.38028012247415" x2="696" y2="240.38028012247415" stroke="#e1e0d9"/>
<text x="66" y="244.38028012247415" text-anchor="end" font-size="11" fill="#898781">1e-4</text>
<line x1="74" y1="198.24714132797928" x2="696" y2="198.24714132797928" stroke="#e1e0d9"/>
<text x="66" y="202.24714132797928" text-anchor="end" font-size="11" fill="#898781">1e-3</text>
<line x1="74" y1="156.11400253348444" x2="696" y2="156.11400253348444" stroke="#e1e0d9"/>
<text x="66" y="160.11400253348444" text-anchor="end" font-size="11" fill="#898781">1e-2</text>
<line x1="74" y1="113.98086373898957" x2="696" y2="113.98086373898957" stroke="#e1e0d9"/>
<text x="66" y="117.98086373898957" text-anchor="end" font-size="11" fill="#898781">1e-1</text>
<line x1="74" y1="71.8477249444947" x2="696" y2="71.8477249444947" stroke="#e1e0d9"/>
<text x="66" y="75.8477249444947" text-anchor="end" font-size="11" fill="#898781">1e0</text>
<line x1="144.54839593281702" y1="60" x2="144.54839593281702" y2="408" stroke="#e1e0d9"/>
<text x="144.54839593281702" y="426" text-anchor="middle" font-size="11" fill="#898781">1e0</text>
<line x1="599.9874099989406" y1="60" x2="599.9874099989406" y2="408" stroke="#e1e0d9"/>
<text x="599.9874099989406" y="426" text-anchor="middle" font-size="11" fill="#898781">1e1</text>
<rect x="74" y="60" width="622" height="348" fill="none" stroke="#898781"/>
<text x="385" y="450" text-anchor="middle" font-size="13" fill="#52514e">loop radius s  (log; loop recedes to distance ~2s)</text>
<text x="18" y="234" text-anchor="middle" font-size="13" fill="#52514e" transform="rotate(-90 18 234)">flux or field magnitude  (log)</text>
<polyline points="74.0,84.0 99.9,84.3 125.8,84.4 151.8,84.4 177.7,84.4 203.6,84.4 229.5,84.4 255.4,84.4 281.3,84.4 307.3,84.4 333.2,84.4 359.1,84.4 385.0,84.4 410.9,84.4 436.8,84.4 462.8,84.4 488.7,84.4 514.6,84.4 540.5,84.4 566.4,84.4 592.3,84.4 618.3,84.4 644.2,84.4 670.1,84.4 696.0,84.4" fill="none" stroke="#2a78d6" stroke-width="2.5"/>
<line x1="86" y1="78" x2="114" y2="78" stroke="#2a78d6" stroke-width="3"/>
<text x="120" y="82" font-size="12" fill="#0b0b0b">linked loop: |Φ_link| (through the hole)</text>
<polyline points="74.0,131.7 99.9,162.9 125.8,175.1 151.8,180.2 177.7,184.2 203.6,187.8 229.5,191.0 255.4,194.1 281.3,197.0 307.3,199.8 333.2,202.6 359.1,205.2 385.0,207.8 410.9,210.4 436.8,212.9 462.8,215.4 488.7,217.9 514.6,220.3 540.5,222.8 566.4,225.2 592.3,227.6 618.3,230.1 644.2,232.5 670.1,234.8 696.0,237.4" fill="none" stroke="#e34948" stroke-width="2.5"/>
<line x1="86" y1="96" x2="114" y2="96" stroke="#e34948" stroke-width="3"/>
<text x="120" y="100" font-size="12" fill="#0b0b0b">linked loop: mean |B| on the loop</text>
<polyline points="74.0,384.0 99.9,378.0 125.8,372.3 151.8,366.8 177.7,361.7 203.6,357.5 229.5,354.1 255.4,351.4 281.3,349.4 307.3,347.9 333.2,347.1 359.1,346.9 385.0,347.1 410.9,347.8 436.8,349.0 462.8,350.5 488.7,352.4 514.6,354.6 540.5,357.2 566.4,360.0 592.3,363.2 618.3,366.7 644.2,370.5 670.1,374.7 696.0,379.5" fill="none" stroke="#2a78d6" stroke-width="2.5" stroke-dasharray="6,4"/>
<line x1="86" y1="114" x2="114" y2="114" stroke="#2a78d6" stroke-width="3" stroke-dasharray="6,4"/>
<text x="120" y="118" font-size="12" fill="#0b0b0b">control loop (same size, y=3, unlinked): |Φ|</text>
<polyline points="74.0,219.1 99.9,219.8 125.8,220.6 151.8,221.6 177.7,222.7 203.6,224.0 229.5,225.5 255.4,227.2 281.3,229.0 307.3,230.9 333.2,232.9 359.1,235.1 385.0,237.3 410.9,239.5 436.8,241.8 462.8,244.2 488.7,246.5 514.6,248.9 540.5,251.3 566.4,253.7 592.3,256.1 618.3,258.5 644.2,260.9 670.1,263.3 696.0,265.7" fill="none" stroke="#e34948" stroke-width="2.5" stroke-dasharray="6,4"/>
<line x1="86" y1="132" x2="114" y2="132" stroke="#e34948" stroke-width="3" stroke-dasharray="6,4"/>
<text x="120" y="136" font-size="12" fill="#0b0b0b">control loop: mean |B|</text>
</svg>
