<svg xmlns="http://www.w3.org/2000/svg" width="760" height="440" font-family="sans-serif">
<rect width="760" height="440" fill="white"/>
<text x="380" y="24" text-anchor="middle" font-size="16">Seed field wound into a net dipole (96³, 2% noise)</text>
<line x1="78" y1="342.27710878925046" x2="740" y2="342.27710878925046" stroke="#ddd"/>
<text x="70" y="346.27710878925046" text-anchor="end" font-size="12">1e-5</text>
<line x1="78" y1="279.33897154162565" x2="740" y2="279.33897154162565" stroke="#ddd"/>
<text x="70" y="283.33897154162565" text-anchor="end" font-size="12">1e-4</text>
<line x1="78" y1="216.40083429400084" x2="740" y2="216.40083429400084" stroke="#ddd"/>
<text x="70" y="220.40083429400084" text-anchor="end" font-size="12">1e-3</text>
<line x1="78" y1="153.46269704637604" x2="740" y2="153.46269704637604" stroke="#ddd"/>
<text x="70" y="157.46269704637604" text-anchor="end" font-size="12">1e-2</text>
<line x1="78" y1="90.52455979875128" x2="740" y2="90.52455979875128" stroke="#ddd"/>
<text x="70" y="94.52455979875128" text-anchor="end" font-size="12">1e-1</text>
<line x1="78.0" y1="44" x2="78.0" y2="388" stroke="#eee"/>
<text x="78.0" y="406" text-anchor="middle" font-size="12">0.3</text>
<line x1="210.4" y1="44" x2="210.4" y2="388" stroke="#eee"/>
<text x="210.4" y="406" text-anchor="middle" font-size="12">3.8</text>
<line x1="342.8" y1="44" x2="342.8" y2="388" stroke="#eee"/>
<text x="342.8" y="406" text-anchor="middle" font-size="12">7.4</text>
<line x1="475.2" y1="44" x2="475.2" y2="388" stroke="#eee"/>
<text x="475.2" y="406" text-anchor="middle" font-size="12">10.9</text>
<line x1="607.6" y1="44" x2="607.6" y2="388" stroke="#eee"/>
<text x="607.6" y="406" text-anchor="middle" font-size="12">14.5</text>
<line x1="740.0" y1="44" x2="740.0" y2="388" stroke="#eee"/>
<text x="740.0" y="406" text-anchor="middle" font-size="12">18.0</text>
<rect x="78" y="44" width="662" height="344" fill="none" stroke="#888"/>
<text x="409" y="428" text-anchor="middle" font-size="13">t</text>
<text x="20" y="216" text-anchor="middle" font-size="13" transform="rotate(-90 20 216)">|m_z|  (magnetic dipole)</text>
<polyline points="78.0,369.6 87.4,308.3 96.7,283.0 106.2,277.7 115.4,278.9 124.8,264.2 134.1,240.4 143.5,230.6 152.7,232.3 162.2,235.2 171.5,232.2 180.5,226.8 190.0,224.8 199.2,225.3 208.5,224.3 217.7,222.5 227.4,220.1 236.6,217.9 245.8,216.0 255.1,215.2 264.5,215.4 273.6,215.3 283.0,214.4 292.4,212.8 301.9,210.5 311.0,208.1 320.5,205.6 329.6,203.5 339.1,201.0 348.3,198.2 357.5,194.6 367.2,189.7 376.3,184.2 385.5,178.6 394.9,173.2 404.0,168.2 413.4,163.5 422.7,159.0 432.0,154.7 441.7,150.1 451.0,145.6 460.3,140.9 469.3,136.4 478.9,131.6 488.1,127.4 497.5,123.5 506.6,120.1 516.3,116.8 525.6,114.1 534.6,111.8 544.3,109.6 553.6,107.9 562.5,106.5 572.2,105.3 581.3,104.3 590.6,103.5 599.9,102.8 609.2,102.2 618.5,101.6 627.8,101.1 637.2,100.7 646.7,100.3 655.6,99.9 665.3,99.6 674.5,99.4 683.8,99.2 693.2,99.1 702.6,99.0 712.1,98.9 720.9,98.9 730.4,98.8 740.0,98.8" fill="none" stroke="#1f77b4" stroke-width="2"/>
<line x1="90" y1="60" x2="118" y2="60" stroke="#1f77b4" stroke-width="3"/>
<text x="124" y="64" font-size="12">limnickels (ring collision)</text>
<polyline points="78.0,315.5 87.5,294.0 96.6,302.8 106.2,279.0 115.3,235.0 124.7,208.3 133.9,185.9 143.4,169.3 152.8,156.9 162.1,147.5 171.1,140.3 180.9,133.9 190.1,128.6 199.4,123.9 208.5,120.0 217.8,116.4 227.4,113.1 236.7,110.1 246.1,107.3 255.4,104.5 264.4,101.7 274.1,97.9 283.2,93.9 292.3,89.9 302.1,85.9 311.3,82.7 320.7,80.1 330.0,77.8 338.8,75.9 348.3,74.1 357.8,72.4 366.8,71.0 376.6,69.7 385.9,68.6 395.2,67.7 404.7,66.9 413.5,66.2 423.1,65.6 432.1,65.1 441.7,64.6 450.7,64.2 460.3,63.9 469.4,63.6 479.1,63.3 488.2,63.1 497.2,63.0 507.0,62.8 516.0,62.7 525.7,62.6 534.8,62.6 543.9,62.5 553.7,62.4 562.9,62.4 572.1,62.5 581.4,62.5 590.7,62.6 600.2,62.8 609.6,62.9 618.4,63.0 627.9,63.2 637.4,63.3 646.2,63.5 655.8,63.7 665.4,63.8 674.2,64.0 683.8,64.2 693.4,64.5 702.3,64.7 711.8,64.9 721.4,65.1 730.3,65.4 739.9,65.6" fill="none" stroke="#d62728" stroke-width="2"/>
<line x1="90" y1="76" x2="118" y2="76" stroke="#d62728" stroke-width="3"/>
<text x="124" y="80" font-size="12">counterhel (merging)</text>
</svg>
