<svg xmlns="http://www.w3.org/2000/svg" width="760" height="460" font-family="sans-serif">
<rect width="760" height="460" fill="#fcfcfb"/>
<text x="380" y="26" text-anchor="middle" font-size="16" fill="#0b0b0b">Where does the frame-cycle time go? (256³, GTX 1080, FP64)</text>
<text x="380" y="46" text-anchor="middle" font-size="12" fill="#898781">305582 ms per frame (t += 0.25, ~101 physics steps)</text>
<path d="M 210,236 L 210.0,86.0 A 150,150 0 1,1 206.7630674290371,86.03492984187605 Z" fill="#2a78d6" stroke="#fcfcfb" stroke-width="2"/>
<text x="211.0035075192974" y="328.99458571690457" text-anchor="middle" font-size="13" fill="white" font-weight="600">99.7%</text>
<path d="M 210,236 L 206.7630674290371,86.03492984187605 A 150,150 0 0,1 209.02289923504384,86.00318245344295 Z" fill="#eb6834" stroke="#fcfcfb" stroke-width="2"/>
<path d="M 210,236 L 209.02289923504384,86.00318245344295 A 150,150 0 0,1 209.99999999999997,86.0 Z" fill="#008300" stroke="#fcfcfb" stroke-width="2"/>
<rect x="430" y="104" width="14" height="14" fill="#2a78d6"/>
<text x="452" y="116" font-size="13" fill="#0b0b0b">GPU physics stepping</text>
<text x="740" y="116" text-anchor="end" font-size="13" fill="#52514e">99.7%</text>
<rect x="430" y="130" width="14" height="14" fill="#eb6834"/>
<text x="452" y="142" font-size="13" fill="#0b0b0b">Frame diagnostics (render+moments)</text>
<text x="740" y="142" text-anchor="end" font-size="13" fill="#52514e">0.2%</text>
<rect x="430" y="156" width="14" height="14" fill="#008300"/>
<text x="452" y="168" font-size="13" fill="#0b0b0b">File I/O (PNG + volume)</text>
<text x="740" y="168" text-anchor="end" font-size="13" fill="#52514e">0.1%</text>
</svg>
